<?xml version="1.0" encoding="iso-8859-1"?>
<!-- Uploaded to: SVG Repo, www.svgrepo.com, Generator: SVG Repo Mixer Tools -->
<svg height="800px" width="800px" version="1.1" id="Layer_1" xmlns="http://www.w3.org/2000/svg" xmlns:xlink="http://www.w3.org/1999/xlink" 
	 viewBox="0 0 512.001 512.001" xml:space="preserve">
<path style="fill:#FFE49C;" d="M461.779,510.012l-110.13-56.037C196.103,522.892,18.858,408.74,18.858,237.054
	C18.858,106.342,125.199,0,255.911,0c193.74,0,303.446,219.186,193.598,373.896l37.349,114.668
	C491.767,503.635,475.949,517.218,461.779,510.012z"/>
<path style="fill:#FFD155;" d="M449.51,373.896C559.357,219.186,449.651,0,255.911,0v474.362
	c31.697,0.046,64.164-6.399,95.737-20.388l110.13,56.038c14.17,7.208,29.989-6.377,25.08-21.447L449.51,373.896z"/>
<path style="fill:#8DC3E9;" d="M255.911,71.866c-91.085,0-165.188,74.103-165.188,165.188s74.103,165.188,165.188,165.188
	S421.1,328.14,421.1,237.055S346.996,71.866,255.911,71.866z M384.145,219.195h-30.446c-1.963-31.764-9.148-61.575-20.794-86.164
	C360.195,153.282,379.267,184,384.145,219.195z M238.053,113.708v105.487H193.89C197.529,167.041,216.783,128.138,238.053,113.708z
	 M238.053,254.912v106.015c-23.937-15.467-40.532-60.669-44.072-106.015L238.053,254.912L238.053,254.912z M273.77,360.4V254.912
	h44.163C314.296,307.067,295.04,345.97,273.77,360.4z M273.77,219.195V113.181c23.937,15.467,40.532,60.668,44.072,106.014H273.77z
	 M178.917,133.032c-11.645,24.588-18.829,54.399-20.794,86.164h-30.445C132.557,184,151.629,153.282,178.917,133.032z
	 M127.679,254.912h30.446c1.963,31.764,9.148,61.575,20.794,86.164C151.629,320.826,132.557,290.107,127.679,254.912z
	 M332.906,341.077c11.645-24.588,18.829-54.399,20.794-86.164h30.446C379.267,290.107,360.195,320.826,332.906,341.077z"/>
<path style="fill:#48AEE2;" d="M255.911,71.866v330.376c91.085,0,165.188-74.103,165.188-165.188
	C421.1,145.97,346.996,71.866,255.911,71.866z M384.145,219.196h-30.446c-1.963-31.764-9.148-61.575-20.794-86.164
	C360.195,153.282,379.267,184.001,384.145,219.196z M273.77,113.181c23.937,15.467,40.532,60.669,44.072,106.014H273.77V113.181z
	 M273.77,360.4V254.912h44.163C314.294,307.067,295.04,345.97,273.77,360.4z M332.906,341.077
	c11.645-24.588,18.829-54.399,20.794-86.164h30.446C379.267,290.109,360.195,320.826,332.906,341.077z"/>
</svg>